<svg version="1" xmlns="http://www.w3.org/2000/svg" width="800" height="800" viewBox="0 0 600.000000 600.000000"><path d="M292.9 5.4c-.2.2-2.9.7-5.9 1-15.3 1.6-21.7 2.7-39 7.2-7.4 1.9-14 4-14.7 4.6-.7.6-1.3.8-1.3.5 0-.3-2.8.6-6.2 2-3.5 1.3-6.7 2.6-7.3 2.7-2 .6-6.3 2.5-15.2 6.9-23.5 11.6-43 25-61.4 42.4l-3.5 3.3-3-2.8c-1.6-1.5-7.2-6.3-12.4-10.7-5.2-4.4-9.8-8.3-10.1-8.8-.3-.4-2.5 1.6-5 4.4-2.4 2.9-6.1 7-8.1 9.3-2.2 2.5-3.5 4.8-3.2 5.7.2.9-.1 2.3-.9 3-1.9 2-11.9 15.6-16.1 21.9-2 3-4 6-4.5 6.6-3.4 4.1-19.1 34.5-19.1 36.9 0 .8-.4 1.5-1 1.5-.5 0-1 .8-1 1.8s-.4 2.2-.9 2.7c-2.4 2.5-13.8 40.2-15.6 51.9-.4 2.1-.9 4.8-1.1 6-.2 1.1-.7 3.7-.9 5.6-.3 1.9-.7 4.4-1 5.5-1.8 8.9-2.6 48.7-1.2 63.5.8 7.6 1.6 14.7 2.2 17.5 4.2 22 5.9 28.9 10.6 43 11.6 35 31.4 69.8 54.9 96.4 9.7 11 23 24.1 33.5 32.7 6.5 5.4 27.6 20.5 29.5 21.2.8.3 2.2 1.1 3 1.7 6.5 5.3 48.9 25.1 57.5 26.9.6.1 3.7 1.1 7 2.1s6.5 1.9 7 2.1c10.2 2.6 23.1 5.4 27 6 2.8.3 5.9.9 7 1.1 1.8.4 3.5.6 8.5 1.1 1.4.2 1.6 3.5 1.5 25.7 0 27.7-.1 28-5.4 26.6-1.4-.3-3.9-.5-5.6-.4-6.1.6-13.4.5-14.4-.2-.6-.3-1.1-.2-1.1.4 0 .6-1.1.7-2.7.3-1.6-.4-3.9-.6-5.3-.5-3.5.4-9 .5-12.2.4-6.2-.2-8.5-.3-11.8-.2-1.9 0-5.8.1-8.7.2-2.8.1-5.6-.2-6.2-.6-.6-.3-1.1-.2-1.1.4 0 .6-1.1.7-2.7.3-1.6-.4-4.1-.6-5.8-.5-1.6.2-5 .3-7.5.3-8.6.1-17.5.2-19 .1h-39c-3 0-6.6 0-8-.1-1.4-.1-3.2-.1-4-.1-.8.1-2.6.1-4 0h-6c-1.9 0-5.8.1-8.7.2-2.8.1-5.6-.2-6.2-.6-.6-.3-1.1-.2-1.1.4 0 .6-1.1.7-2.7.3-1.6-.4-4.1-.6-5.8-.5-1.6.2-4.2.3-5.7.4-2.3 0-2.6.3-1.9 2.2.5 1.2.5 3.1.1 4.2s-.5 2.4-.2 3c.3.5.5 2.2.4 3.7L80 600l240.2-.2c196-.3 240.3-.5 240-1.6-.1-.7-.2-2.4-.2-3.7 0-5.7 0-7.1-.4-9-.2-1.1-1-1.8-1.7-1.6-2.3.6-11.7.3-12.8-.4-.6-.3-1.1-.2-1.1.4 0 .6-1.1.7-2.7.3-1.6-.4-3.9-.6-5.3-.5-3.5.4-9 .5-12.2.4-6.2-.2-8.4-.3-9.8-.2-.8.1-2.6.1-4 0h-4c-.8.1-2.6.1-4 0h-6c-1.9 0-5.8.1-8.7.2-2.8.1-5.6-.2-6.2-.6-.6-.3-1.1-.2-1.1.4 0 .6-1.1.7-2.7.3-1.6-.4-3.9-.6-5.3-.5-3.5.4-9 .5-12.2.4-6.2-.2-8.4-.3-9.8-.2-.8.1-2.6.1-4 0h-4c-.8.1-2.6.1-4 0h-6c-1.9 0-5.8.1-8.7.2-2.8.1-5.6-.2-6.2-.6-.6-.3-1.1-.2-1.1.4 0 .6-1.1.7-2.7.3-1.6-.4-3.9-.6-5.3-.5-3.5.4-9.1.5-12 .4-1.4-.1-3.3-.1-4.2-.1-1.6.1-4.5.1-10.5.1H365c-.8 0-3.6-.1-6.2-.1-3.8-.1-4.8-.5-4.9-1.8 0-.9-.1-12.7-.1-26.1 0-19.5.3-24.5 1.3-25.1.8-.4 5.7-1.5 10.9-2.4 41.1-7.5 84.5-26.8 117.5-52.3.6-.5 3-2.4 5.5-4.3s5.4-4.3 6.5-5.5c1.1-1.1 3.8-3.4 6-5 4.4-3.4 10.1-9 14.8-14.9 1.8-2.1 3.9-4.6 4.8-5.4 1.5-1.3 1-2-5.5-7.6-3.9-3.5-8.1-7.1-9.4-8.2-1.3-1-3.4-2.8-4.7-4l-2.3-2.1 2.7-3c14-16.4 26.7-35.6 35.2-53.3 4.8-10.1 6.8-14.5 7.1-16 .2-.8.6-1.7.9-2 1.3-1.1 10.6-31 11.5-37 .3-1.9.9-5.1 1.4-7 1-4 2.6-15.2 3.7-25.5 1.2-11.7.7-40-1.1-54-1-8.7-3.1-19.9-5.1-27.5-2.1-8.4-3.5-13.2-4-14-.4-.6-.8-2-1-3.3-1.5-7.7-14.9-37.3-23.1-50.7-7.5-12.2-7.1-11.2-5.4-11.8 4.2-1.5 25-12.5 25-13.3 0-.5.5-.9 1.2-.9 1.6 0 9.8-8.1 9.8-9.7 0-.7.4-1.3.9-1.3s2.1-3 3.6-6.8c3.6-8.8 4.3-21.9 1.6-30.4-3.5-10.9-10.4-19.5-20.1-25.2-8.4-4.9-13.4-6.1-24-6-8.7 0-10.1.3-17.3 3.7-11.3 5.2-16.9 11.3-24.1 26-3.8 7.9-6.1 11.5-6.9 11-.7-.4-3.9-2.8-7.2-5.3-21.6-16.7-47.3-30.2-75-39.1-8.2-2.7-19.8-5.8-23.5-6.3-.8-.2-2.8-.6-4.5-.9-3.3-.7-8.2-1.6-13.5-2.3-1.9-.3-4.6-.8-6-1-3.1-.6-48.5-1.5-49.1-1zM112.4 86.8c4.3 3.8 7.9 7.1 8 7.4.2.9-10.8 15.8-11.6 15.8-.4 0-.8.5-.8 1.2 0 .6-.7 2-1.7 3-.9 1-2.1 2.6-2.7 3.7-.6 1-2.2 3.8-3.6 6.1s-3 5-3.5 5.9c-2.4 3.6-11.9 22.7-12.2 24.4-.2 1-.9 2.8-1.7 4-1.4 2.2-10 26.9-11 31.7-3.6 16.5-5.6 26.8-6.1 31.6-.3 3.3-.8 7.7-1.1 9.9-.8 6.3-.8 34.2 0 42 1.1 12 2.1 19 3.2 25 .2 1.1.6 3.1.9 4.5.6 3 1.1 5.2 2.5 10.5.6 2.2 1.3 5 1.5 6.1.3 1.2 1.5 5.3 2.7 9 1.2 3.8 2.2 7.1 2.3 7.4.1.3.7 1.8 1.4 3.5.7 1.6 2.4 5.9 3.8 9.5 4 10.2 17.7 36.2 19.4 36.8.5.2.9.9.9 1.6 0 .6.7 2.1 1.5 3.1.8 1.1 4.6 6.1 8.3 11.1 12.5 17 29.8 34.9 45.7 47.2 3.3 2.5 6.2 4.9 6.5 5.2.3.3 4.3 3.1 9 6.2 14.5 9.4 28.5 16.8 46.5 24.3 10.8 4.5 31.7 10.7 44 13.1 2.2.4 4.7.9 5.5 1 .8.2 3.5.6 6 .9 2.5.3 5.6.7 7 1 11.6 2.3 53.2 2 61.8-.4 1.7-.5 3.2-.7 3.5-.5.3.3 4.8-.3 13.2-2 13.9-2.8 35.5-9.2 44.2-13.2 1.7-.7 3.4-1.4 3.8-1.4 1.3 0 24.2-11.4 29.3-14.7 2.9-1.8 5.5-3.3 5.8-3.3.7 0 19.7-13.3 21.4-15 .3-.3 2.1-1.7 4-3.1 1.9-1.5 5.1-4.1 7-5.8 3.8-3.3 5.5-3.8 6.7-1.9.4.7 3.8 3.8 7.5 6.8s6.7 5.9 6.7 6.4c.1.9-1.2 2.1-8.8 8.4-2.4 2.1-4.9 4.1-5.5 4.7-5.7 5.1-31.3 22.5-33.2 22.5-.7 0-1.4.4-1.6.9-.6 1.7-26.3 13.9-40 19-13.1 4.9-36.5 11.5-44.5 12.6-2.1.3-5 .7-6.5 1-7 1.3-8.7 1.5-15.3 2.2-14.5 1.6-64.4.6-67.5-1.2-.3-.2-3.3-.7-6.5-1-3.3-.4-6.3-.9-6.6-1.1-.3-.2-4.1-1-8.5-1.9-4.3-.9-10.1-2.3-12.9-3.2-19.9-6-31-10.2-45-16.9-9.8-4.6-28.9-15.4-29.3-16.6-.2-.4-.8-.8-1.3-.8-.8 0-16.5-10.9-20.2-14-.7-.6-2.3-2-3.7-3.1-14.6-12-31.3-28.9-42.8-43.5-6-7.6-17.2-24-17.2-25.3 0-.6-.4-1.1-.9-1.1s-1.1-.8-1.4-1.7c-.4-1-2-4.1-3.6-6.8-1.7-2.8-3.8-6.6-4.7-8.5-.9-1.9-2.7-5.5-3.9-8-3.1-6-10.7-25.4-13.6-34.5-1.5-4.6-6-21.7-6.4-24-.4-2.9-1.6-9.4-2.1-11.9-3.3-17-4.5-40.9-3.1-63.6.4-5.8.9-11.4 1.1-12.5.3-1.8 1.8-12.2 2.1-15 .1-.9 1.7-9 2-10.5.1-.3.5-2.1.9-4 1-4.5 6.5-24 7.3-26 .3-.8.7-2 .8-2.5.9-3.5 9.5-23.6 14.1-32.7 7.2-14.4 19.7-34.3 27.1-43.3.5-.6 2.1-2.7 3.7-4.8 1.6-2 3.1-3.7 3.5-3.7.3 0 4.2 3.1 8.5 6.8z"/></svg>